M48
INCH
T01C0.0100
T02C0.0300
T03C0.0400
T04C0.0650
T05C0.0600
%
T01
X-008500Y+019500
X-005000Y+020000
X-013000Y+017500
X-007500Y+017500
X-009000Y+026000
X-001500Y+019500
X-019000Y+011000
X-022250Y+011500
X-005000Y+018000
X-012000Y+018000
X-005000Y+016000
X-012000Y+016000
X-023000Y+022500
X-016250Y+013000
X-017000Y+021000
X-022500Y+021500
X-016000Y+021000
X-005000Y+017000
X-012500Y+013500
X-011750Y+012000
X-013000Y+012000
X-012250Y+026000
X-012000Y+022000
X-025000Y+027000
X-025000Y+016500
X-020000Y+013000
X-013000Y+025000
X-023000Y+028000
X-017000Y+015000
X-009250Y+014000
X-012750Y+014500
X-012000Y+020000
X-019500Y+019500
X+000000Y+029000
X-002250Y+028250
X-005000Y+028000
X-017750Y+023500
X-012750Y+028000
X-014250Y+027000
X-017750Y+026750
X-017000Y+025500
X-012000Y+024500
X-023000Y+016250
X-024000Y+020000
X-019750Y+018500
X-022500Y+024500
X-023000Y+026000
X-021000Y+011000
X-022000Y+026000
X-015250Y+027250
X-022750Y+029500
X-022250Y+028750
X-005250Y+014000
X-018000Y+017000
X-020250Y+022000
X-017000Y+022000
X-015000Y+018000
X-022750Y+019500
X-008250Y+029750
X-007000Y+029250
X-001500Y+018500
X-009000Y+018500
X-009000Y+022000
X-007750Y+022000
X-009250Y+029000
X-021500Y+030000
X-020000Y+023000
X-015000Y+022000
X-017000Y+014000
X-022500Y+013000
X-001500Y+022000
X-023500Y+021000
X-023000Y+018500
X-018000Y+014000
X-006000Y+027000
X-000250Y+027000
X-011750Y+028500
X-019750Y+029750
X-020000Y+011500
X+001000Y+011500
X-000250Y+026000
X-009000Y+025000
X-009000Y+023000
X+001000Y+026500
X-020250Y+020250
X-013000Y+021000
X-001750Y+026500
X-016250Y+011000
X-001000Y+011000
X-022000Y+017250
X-010500Y+018500
X-013000Y+024000
X-005750Y+028500
X-005000Y+021000
X-018000Y+012000
X-022000Y+027000
X-001500Y+021000
X-000500Y+023500
X-013000Y+022500
T02
X-024000Y+019000
X-024000Y+018000
X-024000Y+017000
X-024000Y+016000
X-024000Y+015000
X-024000Y+014000
X-024000Y+013000
X-024000Y+012000
X-021000Y+012000
X-021000Y+013000
X-021000Y+014000
X-021000Y+015000
X-021000Y+016000
X-021000Y+017000
X-021000Y+018000
X-021000Y+019000
X-021000Y+019000
X-021000Y+018000
X-021000Y+017000
X-021000Y+016000
X-021000Y+015000
X-021000Y+014000
X-021000Y+013000
X-021000Y+012000
X-024000Y+019000
X-024000Y+018000
X-024000Y+017000
X-024000Y+016000
X-024000Y+015000
X-024000Y+014000
X-024000Y+013000
X-024000Y+012000
X-018000Y+020000
X-015000Y+020000
X-018000Y+020000
X-015000Y+020000
X-007000Y+021000
X-010000Y+021000
X-007000Y+021000
X-010000Y+021000
X-007000Y+023000
X-010000Y+023000
X-007000Y+023000
X-010000Y+023000
X-007000Y+025000
X-010000Y+025000
X-007000Y+025000
X-010000Y+025000
X-018000Y+015000
X-015000Y+015000
X-018000Y+015000
X-015000Y+015000
X-010000Y+026000
X-007000Y+026000
X-010000Y+026000
X-007000Y+026000
X-018000Y+013000
X-015000Y+013000
X-018000Y+013000
X-015000Y+013000
X-018000Y+011000
X-015000Y+011000
X-018000Y+011000
X-015000Y+011000
X-007000Y+016000
X-010000Y+016000
X-007000Y+016000
X-010000Y+016000
X-004000Y+030000
X-004000Y+029000
X-004000Y+028000
X-004000Y+027000
X-004000Y+026000
X-004000Y+025000
X-004000Y+024000
X-004000Y+023000
X-004000Y+022000
X-004000Y+021000
X-004000Y+020000
X-004000Y+019000
X-004000Y+018000
X-004000Y+017000
X-004000Y+016000
X-004000Y+015000
X-004000Y+014000
X-004000Y+013000
X-004000Y+012000
X-004000Y+011000
X+002000Y+011000
X+002000Y+012000
X+002000Y+013000
X+002000Y+014000
X+002000Y+015000
X+002000Y+016000
X+002000Y+017000
X+002000Y+018000
X+002000Y+019000
X+002000Y+020000
X+002000Y+021000
X+002000Y+022000
X+002000Y+023000
X+002000Y+024000
X+002000Y+025000
X+002000Y+026000
X+002000Y+027000
X+002000Y+028000
X+002000Y+029000
X+002000Y+030000
X+002000Y+024000
X+002000Y+027000
X+002000Y+023000
X+002000Y+021000
X+002000Y+028000
X+002000Y+025000
X+002000Y+026000
X+002000Y+022000
X+002000Y+015000
X+002000Y+020000
X+002000Y+013000
X+002000Y+018000
X+002000Y+030000
X+002000Y+012000
X+002000Y+014000
X+002000Y+019000
X+002000Y+016000
X+002000Y+017000
X+002000Y+029000
X-004000Y+030000
X-004000Y+026000
X-004000Y+012000
X-004000Y+024000
X-004000Y+025000
X-004000Y+027000
X-004000Y+022000
X-004000Y+028000
X-004000Y+029000
X-004000Y+023000
X-004000Y+021000
X-004000Y+011000
X-004000Y+015000
X-004000Y+019000
X-004000Y+013000
X-004000Y+014000
X-004000Y+016000
X-004000Y+020000
X-004000Y+017000
X-004000Y+018000
X+002000Y+011000
X-014000Y+026000
X-014000Y+025000
X-014000Y+024000
X-014000Y+023000
X-014000Y+022000
X-014000Y+021000
X-014000Y+020000
X-011000Y+020000
X-011000Y+021000
X-011000Y+022000
X-011000Y+023000
X-011000Y+024000
X-011000Y+025000
X-011000Y+026000
X-011000Y+026000
X-011000Y+025000
X-011000Y+024000
X-011000Y+023000
X-011000Y+022000
X-011000Y+021000
X-011000Y+020000
X-014000Y+026000
X-014000Y+025000
X-014000Y+024000
X-014000Y+023000
X-014000Y+022000
X-014000Y+021000
X-014000Y+020000
X-014000Y+017000
X-014000Y+016000
X-014000Y+015000
X-014000Y+014000
X-014000Y+013000
X-014000Y+012000
X-014000Y+011000
X-011000Y+011000
X-011000Y+012000
X-011000Y+013000
X-011000Y+014000
X-011000Y+015000
X-011000Y+016000
X-011000Y+017000
X-011000Y+017000
X-011000Y+016000
X-011000Y+015000
X-011000Y+014000
X-011000Y+013000
X-011000Y+012000
X-011000Y+011000
X-014000Y+017000
X-014000Y+016000
X-014000Y+015000
X-014000Y+014000
X-014000Y+013000
X-014000Y+012000
X-014000Y+011000
X-002500Y+025000
X-002500Y+024000
X-002500Y+023000
X-002500Y+022000
X-002500Y+021000
X-002500Y+020000
X-002500Y+019000
X-002500Y+018000
X-002500Y+017000
X-002500Y+016000
X+000500Y+016000
X+000500Y+017000
X+000500Y+018000
X+000500Y+019000
X+000500Y+020000
X+000500Y+021000
X+000500Y+022000
X+000500Y+023000
X+000500Y+024000
X+000500Y+025000
X+000500Y+021000
X+000500Y+023000
X+000500Y+022000
X+000500Y+018000
X+000500Y+020000
X+000500Y+019000
X+000500Y+017000
X+000500Y+025000
X+000500Y+024000
X-002500Y+025000
X-002500Y+022000
X-002500Y+017000
X-002500Y+024000
X-002500Y+023000
X-002500Y+021000
X-002500Y+016000
X-002500Y+020000
X-002500Y+019000
X-002500Y+018000
X+000500Y+016000
X-024000Y+029000
X-024000Y+028000
X-024000Y+027000
X-024000Y+026000
X-024000Y+025000
X-024000Y+024000
X-024000Y+023000
X-024000Y+022000
X-021000Y+022000
X-021000Y+023000
X-021000Y+024000
X-021000Y+025000
X-021000Y+026000
X-021000Y+027000
X-021000Y+028000
X-021000Y+029000
X-021000Y+029000
X-021000Y+028000
X-021000Y+027000
X-021000Y+026000
X-021000Y+025000
X-021000Y+024000
X-021000Y+023000
X-021000Y+022000
X-024000Y+029000
X-024000Y+028000
X-024000Y+027000
X-024000Y+026000
X-024000Y+025000
X-024000Y+024000
X-024000Y+023000
X-024000Y+022000
X-019000Y+025000
X-015000Y+025000
X-019000Y+025000
X-015000Y+025000
X-019000Y+024000
X-015000Y+024000
X-019000Y+024000
X-015000Y+024000
X-019000Y+023000
X-015000Y+023000
X-019000Y+023000
X-015000Y+023000
X-019000Y+026000
X-015000Y+026000
X-019000Y+026000
X-015000Y+026000
X-019000Y+021000
X-015000Y+021000
X-019000Y+021000
X-015000Y+021000
X-006000Y+020000
X-010000Y+020000
X-006000Y+020000
X-010000Y+020000
X-006000Y+022000
X-010000Y+022000
X-006000Y+022000
X-010000Y+022000
X-006000Y+024000
X-010000Y+024000
X-006000Y+024000
X-010000Y+024000
X-019000Y+016000
X-015000Y+016000
X-019000Y+016000
X-015000Y+016000
X-019000Y+014000
X-015000Y+014000
X-019000Y+014000
X-015000Y+014000
X-019000Y+012000
X-015000Y+012000
X-019000Y+012000
X-015000Y+012000
X-006000Y+017000
X-010000Y+017000
X-006000Y+017000
X-010000Y+017000
X-017500Y+018000
X-016500Y+018000
X-017500Y+018000
X-016500Y+018000
X-013500Y+029000
X-013500Y+028000
X-013500Y+029000
X-013500Y+028000
X-026500Y+030000
X-026500Y+011000
X+004500Y+011000
X+005000Y+030000
T03
X-011000Y+029500
X-011000Y+028500
X-011000Y+027500
X-011000Y+027500
X-011000Y+028500
X-011000Y+029500
T04
X-018500Y+028500
T05
X-016500Y+028500
X-018500Y+028500
X-016500Y+028500
M30
